<svg width="24" height="24" viewBox="0 0 24 24" fill="none" xmlns="http://www.w3.org/2000/svg">
<path d="M11.9431 0.182129C13.8151 0.182129 15.5971 0.612129 17.1951 1.37913C17.4461 1.49213 17.6981 1.62713 17.9481 1.76313L16.8521 2.73313L15.2091 1.04113L12.3771 3.52413L10.7101 1.74013L5.50307 6.36813L8.83707 10.0031L7.53507 11.1311L10.8251 14.7661L9.52307 15.8941L14.2271 21.0641L17.0121 18.5351L19.4331 21.2451C18.9531 21.6061 18.4281 21.9681 17.8581 22.2841C16.0579 23.2917 14.029 23.8199 11.9661 23.8181C5.36607 23.8171 7.36626e-05 18.5121 7.36626e-05 11.9901C-0.0229263 5.51013 5.34307 0.182129 11.9431 0.182129ZM9.75007 11.2681L12.6051 8.73913L15.1631 11.5611L12.3081 14.0901L9.75007 11.2681ZM11.7831 16.1441L14.6151 13.5941L17.1951 16.4151L14.3401 18.9441L11.7831 16.1441ZM7.72007 6.46013L10.5741 3.93113L13.1311 6.75313L10.2771 9.28113L7.72007 6.46013ZM12.9481 5.10513L15.0721 3.20913L16.9911 5.30813L14.8671 7.22713L12.9481 5.10513ZM16.7401 13.7961L18.8631 11.9001L20.7811 14.0211L18.6571 15.9191L16.7401 13.7961ZM18.6121 18.0631L20.7361 16.1661L22.6531 18.2661L20.5301 20.1841L18.6121 18.0631ZM19.4801 8.31013L20.8951 7.04613L22.1741 8.44613L20.7581 9.71013L19.4801 8.31013ZM17.6531 4.13413L19.0691 2.84813L20.3491 4.27013L18.9311 5.53413L17.6531 4.13413ZM21.2831 12.4871L22.6991 11.2231L24.0011 12.6231L22.5631 13.8871L21.2831 12.4871ZM14.9131 9.34913L17.0371 7.45313L18.9551 9.55213L16.8311 11.4491L14.9131 9.34913Z" fill="#2E384D"/>
</svg>
