<svg width="18" height="21" viewBox="0 0 18 21" fill="none" xmlns="http://www.w3.org/2000/svg">
<path d="M5.49475 18.667H7.04575L7.58375 15.291C7.68826 14.6315 8.02464 14.0308 8.5324 13.5971C9.04016 13.1634 9.68598 12.9251 10.3538 12.925H10.8538C13.5308 12.925 14.9138 11.942 15.4038 9.422C15.6118 8.356 15.5208 7.692 15.2328 7.32C14.0258 10.374 11.4428 11.48 8.27075 11.48H7.38675C7.00275 11.48 6.59275 11.689 6.53475 12.06L5.49475 18.667ZM0.550753 18.373C0.471142 18.373 0.392485 18.3557 0.320195 18.3223C0.247905 18.289 0.183701 18.2404 0.132 18.1798C0.0803 18.1193 0.0423324 18.0483 0.0207108 17.9716C-0.0009108 17.895 -0.00567282 17.8146 0.00675281 17.736L2.67975 0.776001C2.71407 0.559432 2.82462 0.362242 2.99146 0.219966C3.15831 0.077689 3.37048 -0.000318229 3.58975 9.75765e-07H10.0138C12.2258 9.75765e-07 13.9558 0.467001 14.9128 1.558C15.7828 2.548 16.0358 3.642 15.7838 5.25C16.1438 5.441 16.4518 5.675 16.6998 5.956C17.5178 6.889 17.6778 8.216 17.3678 9.806C16.6278 13.611 14.0918 14.926 10.8538 14.926H10.3538C10.1623 14.9263 9.97716 14.9948 9.83164 15.1192C9.68612 15.2436 9.58972 15.4159 9.55975 15.605L8.85775 19.988C8.82798 20.1772 8.73163 20.3496 8.58607 20.474C8.44051 20.5985 8.25528 20.6669 8.06375 20.667H3.71975C3.64999 20.667 3.58107 20.6519 3.51771 20.6227C3.45436 20.5934 3.39808 20.5509 3.35276 20.4978C3.30743 20.4448 3.27412 20.3826 3.25513 20.3155C3.23614 20.2484 3.23192 20.1779 3.24275 20.109L3.51675 18.373H0.549753H0.550753ZM7.38675 9.479H8.27075C11.4608 9.479 13.1658 8.267 13.7538 5.25C13.7738 5.149 13.7908 5.047 13.8068 4.941C13.9728 3.881 13.8568 3.388 13.4088 2.878C12.9438 2.348 11.8058 2 10.0128 2H4.51275L2.24575 16.373H3.80675L4.53675 11.745L4.54375 11.746C4.69061 11.1019 5.05192 10.5268 5.56845 10.1149C6.08498 9.703 6.72611 9.47879 7.38675 9.479Z" fill="#2E384D"/>
</svg>
