<svg width="24" height="24" viewBox="0 0 24 24" fill="none" xmlns="http://www.w3.org/2000/svg">
<path d="M11.0636 0C5.16963 0 0.390625 4.778 0.390625 10.673C0.390625 16.568 5.16962 21.346 11.0646 21.346C12.6316 21.346 14.1826 21.053 16.4626 21.036C18.4956 21.036 20.7296 21.75 23.1806 23.922C23.4286 24.139 23.7546 23.86 23.5376 23.596C21.1326 20.54 18.8976 19.966 16.6646 19.47C13.9346 18.864 12.5386 17.344 11.5606 15.653C11.3746 15.312 11.2806 15.374 11.2656 15.809C11.2476 16.448 11.2956 17.087 11.4056 17.717H11.0796C9.20768 17.7154 7.41287 16.9711 6.08921 15.6474C4.76554 14.3238 4.02121 12.5289 4.01962 10.657C4.02174 8.7855 4.76634 6.9913 6.08997 5.66823C7.41361 4.34516 9.20812 3.60132 11.0796 3.6C12.0758 3.60052 13.0607 3.81175 13.9695 4.21982C14.8783 4.62788 15.6905 5.22356 16.3528 5.96773C17.0151 6.71191 17.5125 7.58775 17.8123 8.53776C18.1122 9.48777 18.2077 10.4905 18.0926 11.48C17.5646 11.387 16.5556 11.372 15.8426 11.434C15.5786 11.465 15.6096 11.589 15.8116 11.621C18.1386 12.055 19.7366 13.498 20.1086 16.12C20.1236 16.182 20.2016 16.197 20.2326 16.15C21.2166 14.4928 21.7364 12.6013 21.7376 10.674C21.7376 4.778 16.9596 0 11.0636 0ZM18.7076 15.077C18.6468 15.0703 18.5854 15.0816 18.531 15.1095C18.4766 15.1374 18.4316 15.1807 18.4016 15.234C18.2776 15.452 18.3716 15.87 18.6036 16.243C18.8356 16.615 19.0536 16.801 19.2096 16.801C19.3646 16.801 19.5036 16.615 19.4416 16.134C19.4116 15.87 19.2556 15.266 18.8516 15.11C18.8046 15.089 18.7506 15.087 18.7076 15.077ZM16.4936 16.864C16.2766 16.864 16.1056 16.94 15.9966 17.08C15.7176 17.421 15.8416 18.042 16.2766 18.415C16.4626 18.585 16.7426 18.678 17.0066 18.678C17.1264 18.6811 17.2454 18.6578 17.3551 18.6098C17.4649 18.5617 17.5627 18.4901 17.6416 18.4C17.8906 18.058 17.7516 17.592 17.2696 17.189C17.0216 16.972 16.7426 16.864 16.4936 16.864Z" fill="#2E384D"/>
</svg>
