<svg width="21" height="8" viewBox="0 0 21 8" fill="none" xmlns="http://www.w3.org/2000/svg">
<path d="M15.539 1.18616C15.0742 1.01677 14.5828 0.931765 14.088 0.935156C12.488 0.935156 11.358 1.74116 11.35 2.89816C11.34 3.74816 12.153 4.22716 12.768 4.51116C13.399 4.80316 13.61 4.98716 13.608 5.24816C13.604 5.64516 13.104 5.82516 12.639 5.82516C12 5.82516 11.651 5.73616 11.114 5.51316L10.915 5.42016L10.688 6.75216C11.077 6.91416 11.778 7.05316 12.502 7.06516C14.203 7.06516 15.315 6.26416 15.328 5.03316C15.342 4.35416 14.902 3.84116 13.976 3.41716C13.413 3.14216 13.064 2.95816 13.064 2.67916C13.064 2.43216 13.363 2.16816 13.988 2.16816C14.404 2.15809 14.8174 2.23613 15.201 2.39716L15.351 2.46416L15.578 1.17716L15.539 1.18616ZM19.691 1.04316H18.441C18.052 1.04316 17.759 1.15016 17.589 1.53616L15.185 6.98216H16.886L17.226 6.08916L19.302 6.09116C19.351 6.30016 19.501 6.98216 19.501 6.98216H21.001L19.691 1.04316ZM9.04905 0.993156H10.67L9.65605 6.93516H8.03705L9.04905 0.991156V0.993156ZM4.93405 4.26816L5.10205 5.09316L6.68605 1.04316H8.40305L5.85205 6.97416H4.13905L2.73905 1.95216C2.71637 1.86935 2.66312 1.79823 2.59005 1.75316C2.08545 1.49249 1.55079 1.29468 0.998047 1.16416L1.02005 1.03916H3.62905C3.98305 1.05316 4.26805 1.16416 4.36305 1.54216L4.93305 4.27116V4.26816H4.93405ZM17.691 4.87416L18.337 3.21216C18.329 3.23016 18.47 2.86916 18.552 2.64616L18.663 3.15916L19.038 4.87316H17.69V4.87416H17.691Z" fill="#2E384D"/>
</svg>
