<svg width="24" height="10" viewBox="0 0 24 10" fill="none" xmlns="http://www.w3.org/2000/svg">
<path d="M1.902 9.34772V6.49997L0 1.39772H0.957L2.355 5.33597L3.969 0.574219H4.848L2.77725 6.53147V9.34847L1.902 9.34772ZM7.539 9.34772H6.80475C6.76797 9.20119 6.74289 9.05197 6.72975 8.90147H6.67575C6.42975 9.21422 6.1125 9.42572 5.6205 9.42572C4.82325 9.42572 4.2765 8.82347 4.2765 7.72247C4.2765 6.52247 4.89075 5.76572 6.4605 5.76572H6.58125V5.43347C6.58125 4.69847 6.33525 4.38647 5.847 4.38647C5.40075 4.38647 5.022 4.62047 4.73325 4.87472L4.56525 4.10897C4.82325 3.89822 5.3355 3.66422 5.901 3.66422C6.894 3.66422 7.437 4.08647 7.437 5.44547V8.07872C7.437 8.61347 7.491 9.08297 7.53375 9.34847L7.539 9.34772ZM6.58575 6.42572H6.48375C5.4015 6.42572 5.172 6.90197 5.172 7.62497C5.172 8.26997 5.38275 8.69072 5.82375 8.69072C6.1245 8.69072 6.426 8.49197 6.582 8.24597L6.58575 6.42572ZM9.387 9.34772H8.52V3.72647H9.387V4.21847H9.441C9.59775 4.00772 10.02 3.66347 10.5428 3.66347C11.277 3.66347 11.664 4.07372 11.664 4.92947V9.34772H10.785V5.00747C10.785 4.58522 10.5982 4.43747 10.2622 4.43747C9.8985 4.43747 9.59025 4.71872 9.387 4.99547V9.34772ZM12.5228 6.75797C12.5228 4.67597 13.3005 3.66422 14.4218 3.66422C14.691 3.66422 14.9685 3.75422 15.1365 3.87497V1.39772H16.0035V9.34772H15.3585L15.2887 8.90147H15.234C14.9917 9.21422 14.6798 9.42572 14.223 9.42572C13.1213 9.42572 12.5228 8.49197 12.5228 6.75797ZM15.1373 4.64072C14.961 4.46447 14.7705 4.37447 14.4802 4.37447C13.7812 4.37447 13.4452 5.43347 13.4452 6.57722C13.4452 7.89047 13.6912 8.68997 14.328 8.68997C14.7622 8.68997 14.9918 8.47922 15.1373 8.25722V4.64072ZM18.7418 9.42572C17.586 9.42572 16.8705 8.50397 16.8705 6.78047C16.8705 4.97672 17.3708 3.66347 18.5618 3.66347C19.4955 3.66347 20.1045 4.36247 20.1045 6.26972V6.74597H17.7728C17.7728 8.01572 18.129 8.68022 18.8197 8.68022C19.3088 8.68022 19.668 8.46122 19.887 8.30522L20.0903 8.96897C19.7068 9.27144 19.2309 9.43272 18.7425 9.42572H18.7418ZM17.7847 6.03122H19.2188C19.2188 5.07422 19.062 4.37522 18.5618 4.37522C18.0308 4.37522 17.844 5.03147 17.781 6.03122H17.7847ZM23.8792 3.74222L22.836 6.36722L24 9.34847H23.1022L22.23 7.03547L21.387 9.34847H20.5312L21.699 6.44522L20.6408 3.74222H21.543L22.2698 5.77697L23.0347 3.74222H23.8792Z" fill="#2E384D"/>
</svg>
